<?xml version="1.0" encoding="utf-8"?>
<svg id="Calque_1" data-name="Calque 1" xmlns="http://www.w3.org/2000/svg" viewBox="0 0 1473.44 1389.19" xmlns:bx="https://boxy-svg.com" width="1473.44px" height="1389.19px">
  <defs>
    <style>
      .cls-1 {
        fill: #80151a;
      }

      .cls-2 {
        fill: url(#Nouvelle_nuance_de_dégradé_2-5);
      }

      .cls-3 {
        fill: url(#linear-gradient-2);
      }

      .cls-4 {
        fill: url(#Nouvelle_nuance_de_dégradé_2-6);
      }

      .cls-5 {
        fill: url(#Nouvelle_nuance_de_dégradé_1-8);
      }

      .cls-6 {
        fill: url(#Nouvelle_nuance_de_dégradé_1-5);
      }

      .cls-7 {
        fill: url(#Nouvelle_nuance_de_dégradé_1-4);
      }

      .cls-8 {
        fill: url(#Nouvelle_nuance_de_dégradé_1-2);
      }

      .cls-9 {
        fill: #4c4c4d;
      }

      .cls-10 {
        fill: #fff;
      }

      .cls-11 {
        fill: #232323;
      }

      .cls-12 {
        fill: url(#Nouvelle_nuance_de_dégradé_2-4);
      }

      .cls-13 {
        fill: none;
      }

      .cls-14 {
        fill: url(#linear-gradient-4);
      }

      .cls-15 {
        fill: url(#linear-gradient-3);
      }

      .cls-16 {
        fill: url(#linear-gradient-5);
      }

      .cls-17 {
        fill: url(#Nouvelle_nuance_de_dégradé_1-6);
      }

      .cls-18 {
        fill: url(#Nouvelle_nuance_de_dégradé_2);
      }

      .cls-19 {
        fill: #9d6627;
      }

      .cls-20 {
        fill: #0e1e32;
      }

      .cls-21 {
        fill: url(#Nouvelle_nuance_de_dégradé_2-3);
      }

      .cls-22 {
        fill: #999;
      }

      .cls-23 {
        fill: url(#Nouvelle_nuance_de_dégradé_1);
      }

      .cls-24 {
        fill: url(#linear-gradient-6);
      }

      .cls-25 {
        fill: #112b44;
      }

      .cls-26 {
        fill: url(#Nouvelle_nuance_de_dégradé_2-2);
      }

      .cls-27 {
        fill: url(#Nouvelle_nuance_de_dégradé_1-3);
      }

      .cls-28 {
        fill: #303131;
      }

      .cls-29 {
        fill: url(#Nouvelle_nuance_de_dégradé_1-7);
      }

      .cls-30 {
        fill: url(#linear-gradient);
      }
    </style>
    <linearGradient id="Nouvelle_nuance_de_dégradé_1" data-name="Nouvelle nuance de dégradé 1" x1="388.01" y1="1119.84" x2="1092.6" y2="1119.84" gradientUnits="userSpaceOnUse">
      <stop offset="0" stop-color="#81151c"/>
      <stop offset="1" stop-color="#e81f28"/>
    </linearGradient>
    <linearGradient id="linear-gradient" x1="1014.66" y1="938.04" x2="1014.66" y2="701.64" gradientUnits="userSpaceOnUse">
      <stop offset="0" stop-color="#1c75bc"/>
      <stop offset="1" stop-color="#264596"/>
    </linearGradient>
    <linearGradient id="Nouvelle_nuance_de_dégradé_2" data-name="Nouvelle nuance de dégradé 2" x1="274.61" y1="1052.45" x2="1200.57" y2="1052.45" gradientUnits="userSpaceOnUse">
      <stop offset="0" stop-color="#1f449c"/>
      <stop offset="1" stop-color="#1c75bc"/>
    </linearGradient>
    <linearGradient id="Nouvelle_nuance_de_dégradé_2-2" data-name="Nouvelle nuance de dégradé 2" x1="737.59" y1="1151.78" x2="737.59" y2="953.12" href="#Nouvelle_nuance_de_dégradé_2"/>
    <linearGradient id="Nouvelle_nuance_de_dégradé_1-2" data-name="Nouvelle nuance de dégradé 1" x1="735.88" y1="932.31" x2="735.88" y2="707.38" href="#Nouvelle_nuance_de_dégradé_1"/>
    <linearGradient id="Nouvelle_nuance_de_dégradé_2-3" data-name="Nouvelle nuance de dégradé 2" x1="150.26" y1="592.1" x2="376.25" y2="592.1" href="#Nouvelle_nuance_de_dégradé_2"/>
    <linearGradient id="Nouvelle_nuance_de_dégradé_1-3" data-name="Nouvelle nuance de dégradé 1" x1="370.04" y1="235.57" x2="435.3" y2="346.88" href="#Nouvelle_nuance_de_dégradé_1"/>
    <linearGradient id="linear-gradient-2" x1="512.36" y1="152.19" x2="577.58" y2="263.46" href="#linear-gradient"/>
    <linearGradient id="linear-gradient-3" x1="551.22" y1="220.78" x2="613.39" y2="317.92" href="#linear-gradient"/>
    <linearGradient id="linear-gradient-4" x1="441.86" y1="193.45" x2="507.12" y2="304.77" href="#linear-gradient"/>
    <linearGradient id="linear-gradient-5" x1="291.8" y1="281.42" x2="357.06" y2="392.74" href="#linear-gradient"/>
    <linearGradient id="Nouvelle_nuance_de_dégradé_1-4" data-name="Nouvelle nuance de dégradé 1" x1="433.65" y1="343.12" x2="473.95" y2="407.41" href="#Nouvelle_nuance_de_dégradé_1"/>
    <linearGradient id="Nouvelle_nuance_de_dégradé_1-5" data-name="Nouvelle nuance de dégradé 1" x1="1110.63" y1="242.21" x2="1040.57" y2="350.65" href="#Nouvelle_nuance_de_dégradé_1"/>
    <linearGradient id="linear-gradient-6" x1="1053.03" y1="330.97" x2="1006.96" y2="402" href="#linear-gradient"/>
    <linearGradient id="Nouvelle_nuance_de_dégradé_1-6" data-name="Nouvelle nuance de dégradé 1" x1="1042.35" y1="347.98" x2="995.33" y2="411.31" href="#Nouvelle_nuance_de_dégradé_1"/>
    <linearGradient id="Nouvelle_nuance_de_dégradé_1-7" data-name="Nouvelle nuance de dégradé 1" x1="668.62" y1="74.52" x2="674.38" y2="173.34" href="#Nouvelle_nuance_de_dégradé_1"/>
    <linearGradient id="Nouvelle_nuance_de_dégradé_2-4" data-name="Nouvelle nuance de dégradé 2" x1="738.69" y1="98.65" x2="729.26" y2="353.12" href="#Nouvelle_nuance_de_dégradé_2"/>
    <linearGradient id="Nouvelle_nuance_de_dégradé_1-8" data-name="Nouvelle nuance de dégradé 1" x1="587.63" y1="4.8" x2="586.67" y2="104.6" href="#Nouvelle_nuance_de_dégradé_1"/>
    <linearGradient id="Nouvelle_nuance_de_dégradé_2-5" data-name="Nouvelle nuance de dégradé 2" x1="739.31" y1="-.52" x2="739.31" y2="70.36" href="#Nouvelle_nuance_de_dégradé_2"/>
    <linearGradient id="Nouvelle_nuance_de_dégradé_2-6" data-name="Nouvelle nuance de dégradé 2" x1="1082.58" y1="592.1" x2="1308.57" y2="592.1" gradientTransform="translate(2413.52) rotate(-180) scale(1 -1)" href="#Nouvelle_nuance_de_dégradé_2"/>
    <bx:export>
      <bx:file format="svg"/>
    </bx:export>
  </defs>
  <path class="cls-28" d="M1102.46,1196.67c-.01-6.12.03-12.23,0-18.35-.07-10.67-3.89-14.38-14.72-14.55-10.99-.17-21.97-.03-33.09-.03-.64-5.21-1.6-9.67-1.58-14.15,0-.58.13-1.19.36-1.82H439.55c.22.63.36,1.24.36,1.82.03,4.47-.93,8.94-1.58,14.15-11.12,0-22.11-.14-33.09.03-10.83.17-14.65,3.88-14.71,14.55-.04,6.12.01,12.23,0,18.35-.04,14.89-.08,29.78-.01,44.66.04,8.3,6.77,15.02,15.07,15.15,10.45.16,20.89.03,31.42.03.67,7.4,1.44,14,1.87,20.59,1.49,22.95,19.26,41.99,42.23,43.1,4.06.2,8.14.14,12.22.04,12.92-.35,25.81-.88,38.72-1.11,5.37-.1,10.01,1.05,14.07,5.62,13.53,13.82,21.91,32.86,26.94,46.61,3.86,10.55,13.76,17.65,24.99,17.74,43.3.33,145.44-.49,148.44-.48,3,0,105.15.81,148.44.48,11.23-.09,21.14-7.2,25-17.74,5.03-13.75,13.41-32.79,26.94-46.61,4.06-4.57,8.7-5.72,14.07-5.62,12.91.24,25.81.77,38.73,1.11,4.07.1,8.16.16,12.22-.04,22.97-1.11,40.73-20.15,42.23-43.1.43-6.59,1.19-13.19,1.87-20.59,10.53,0,20.97.12,31.42-.03,8.3-.12,15.03-6.85,15.07-15.15.08-14.88.03-29.77-.01-44.66ZM418.88,1175.12c5.25.25,10.55,5.79,10.39,10.88-.2,6.59-4.73,10.6-11.62,10.2-6.67-.41-9.25-4.59-9.4-10.67-.14-5.54,5.22-10.67,10.62-10.41ZM419.07,1242.94c-6.89.42-10.97-3.69-10.87-10.62.08-5.84,4.72-10.49,10.43-10.47,5.46.03,10.63,5.09,10.66,10.44.04,6.86-3.7,10.23-10.22,10.65ZM590.59,1334.43c-3.5-5-6.34-10.38-8.6-15.85h153.94v15.85h-145.34ZM646.93,1362.73c-21.73.04-37.6-7.88-48.85-19.32h137.85c0,10.69-8.64,19.35-19.33,19.37-27.27.04-64.16.07-69.67-.04ZM846.05,1362.73c-5.51.11-42.4.09-69.67.04-10.68-.01-19.33-8.68-19.33-19.37h137.85c-11.25,11.44-27.12,19.37-48.85,19.32ZM902.4,1334.43h-145.35v-15.85h153.94c-2.26,5.47-5.1,10.85-8.59,15.85ZM914.14,1309.59h-335.3c-5.14-17.37-4.86-34.43-1.22-43.16.73-1.85,4.81-3.38,7.38-3.39,38.78-.21,77.57-.3,116.35.11,3.01.03,7.17,3.28,8.79,6.16,8.81,15.61,21.59,25.91,36.35,30.65,14.75-4.74,27.55-15.04,36.36-30.65,1.62-2.88,5.78-6.13,8.79-6.16,38.78-.42,77.57-.33,116.35-.11,2.57.01,6.65,1.54,7.38,3.39,3.63,8.73,3.93,25.79-1.22,43.16ZM1074.1,1175.12c5.41-.26,10.77,4.87,10.63,10.41-.15,6.08-2.72,10.27-9.39,10.67-6.89.4-11.43-3.61-11.63-10.2-.16-5.09,5.14-10.63,10.39-10.88ZM1073.92,1242.94c-6.53-.42-10.26-3.79-10.22-10.65.03-5.34,5.19-10.4,10.66-10.44,5.7-.02,10.34,4.63,10.42,10.47.1,6.93-3.98,11.04-10.87,10.62Z"/>
  <path class="cls-13" d="M894.55,91.88c0-1.07-.09-2.11-.16-3.16,0-.01-.01-.02-.01-.03.08,1.06.17,2.11.17,3.19Z"/>
  <path class="cls-23" d="M437.1,1108.35c.22.63.36,1.24.36,1.82.02,4.47-.93,8.94-1.57,14.15-11.12,0-22.11-.13-33.1.03-7.69.11-11.79,2.08-13.58,6.99h701.03c-.19-7.67-.35-15.33-.44-22.98H437.1Z"/>
  <polygon class="cls-25" points="1136.15 1151.49 1187.9 963.97 1166.99 963.97 1120.8 1131.34 1090.24 1131.34 389.21 1131.34 360.13 1131.34 324.2 963.97 303.59 963.97 343.84 1151.49 1136.15 1151.49"/>
  <polygon class="cls-19" points="1136.15 1139.98 343.84 1139.98 303.59 952.46 291.81 952.46 334.54 1151.49 1144.92 1151.49 1199.84 952.46 1187.9 952.46 1136.15 1139.98"/>
  <path class="cls-30" d="M1052.31,795.73v-12.58h-41.85c-26.44,0-31.46,5.34-33.44,12.58h75.3Z"/>
  <path class="cls-25" d="M17.73,707.38l76.49,224.92h1261.48l98.34-224.92H17.73ZM1342.5,912.15h-107.46l4.77-17.26H256.38l3.7,17.26H108.65l-62.79-184.62h1377.36s-80.72,184.62-80.72,184.62Z"/>
  <g>
    <g>
      <path class="cls-25" d="M1146.45,1164.47H313.99l-55.61-224.05h959.58l-71.5,224.05ZM333.85,1139.08h794.05l55.29-173.27H290.84l43.01,173.27Z"/>
      <path class="cls-25" d="M1146.45,1164.47H313.99l-55.61-224.05h959.58l-71.5,224.05ZM333.85,1139.08h794.05l55.29-173.27H290.84l43.01,173.27Z"/>
      <path class="cls-25" d="M1146.45,1164.47H313.99l-55.61-224.05h959.58l-71.5,224.05ZM333.85,1139.08h794.05l55.29-173.27H290.84l43.01,173.27Z"/>
    </g>
    <g>
      <path class="cls-18" d="M274.61,953.12l49.31,198.66h813.25l63.4-198.66H274.61Z"/>
      <path class="cls-18" d="M274.61,953.12l49.31,198.66h813.25l63.4-198.66H274.61Z"/>
      <path class="cls-18" d="M274.61,953.12l49.31,198.66h813.25l63.4-198.66H274.61Z"/>
    </g>
    <g>
      <path class="cls-25" d="M1146.45,1164.47H313.99l-55.61-224.05h959.58l-71.5,224.05ZM333.85,1139.08h794.05l55.29-173.27H290.84l43.01,173.27Z"/>
      <path class="cls-26" d="M274.61,953.12l49.31,198.66h813.25l63.4-198.66H274.61Z"/>
      <path class="cls-20" d="M1139.23,1154.6H321.71l-50.71-204.3h933.43l-65.2,204.3ZM326.12,1148.95h808.99l61.6-193.02H278.21l47.91,193.02Z"/>
    </g>
    <g>
      <path class="cls-20" d="M1139.23,1154.6H321.71l-50.71-204.3h933.43l-65.2,204.3ZM326.12,1148.95h808.99l61.6-193.02H278.21l47.91,193.02Z"/>
      <path class="cls-20" d="M1139.23,1154.6H321.71l-50.71-204.3h933.43l-65.2,204.3ZM326.12,1148.95h808.99l61.6-193.02H278.21l47.91,193.02Z"/>
      <path class="cls-20" d="M1139.23,1154.6H321.71l-50.71-204.3h933.43l-65.2,204.3ZM326.12,1148.95h808.99l61.6-193.02H278.21l47.91,193.02Z"/>
    </g>
  </g>
  <g>
    <path class="cls-25" d="M1364,945H85.12L0,694.69h1473.44l-109.44,250.32ZM103.31,919.61h1244.08l87.23-199.53H35.46l67.85,199.53Z"/>
    <path class="cls-8" d="M17.73,707.38l76.49,224.92h1261.48l98.34-224.92H17.73Z"/>
    <path class="cls-20" d="M1357.54,935.13H92.19L13.79,704.56h1444.56l-100.8,230.57ZM96.24,929.48h1257.61l95.87-219.28H21.67s74.57,219.28,74.57,219.28Z"/>
  </g>
  <path class="cls-11" d="M1.65,695.87l84.32,247.95h1277.26l108.4-247.95H1.65ZM1355.69,932.31H94.22l-76.49-224.92h1436.3l-98.34,224.92Z"/>
  <polygon class="cls-21" points="376.25 681.62 359.03 649.34 371.96 596.62 324.39 502.58 276.59 505.57 307.44 583.75 289.65 632.34 235.34 637.92 177.74 560.79 150.26 612.9 190.34 681.62 376.25 681.62"/>
  <polygon class="cls-28" points="403.68 227.73 395.95 215.83 333.49 255.09 341.82 267.59 403.68 227.73"/>
  <path class="cls-28" d="M777.24,317.14h-12.95v-130.26h-8.67v130.26h-13.41v-130.26h-6.71v130.26h-12.57v-130.26h-8.66v130.26h-12.95v-130.26h-71.68c-.19,11.45,1.27,41.09,21.31,47.26l-1.92,118.03-32.62-25.91-272.52,174.64,43.18,75.81,2.88,104.59s-.35.11-.92.32h700.51c-.57-.19-.91-.32-.91-.32l2.88-104.59,43.18-75.81-272.51-174.64-32.62,25.91-1.92-118.03c20.04-6.16,21.5-35.81,21.31-47.26h-71.69v130.26ZM823.78,476.91l31.67,18.23-20.15,36.15,24.94,28.14,39.35-19.82,19.19,31.34-30.71,24.94,5.76,34.55,46.06,11.52v22.07l-102.19-20.15c0-84.45-102.2-86.85-102.2-86.85v.57c-23.6,2.5-94.63,15.84-94.63,86.27l-102.2,20.15v-22.07l46.06-11.52,5.76-34.55-30.71-24.94,19.2-31.34,39.35,19.82,24.94-28.14-20.15-36.15,31.67-18.23,29.75,35.5,27.82-6.71,7.68-50.86h15.47s23.03.01,23.03.01l7.68,50.85,27.82,6.71,29.75-35.5Z"/>
  <polygon class="cls-28" points="1146.41 255.26 1076.96 211.61 1068.37 224.83 1137.15 269.15 1146.41 255.26"/>
  <path class="cls-27" d="M426.44,364.55c1-1.5,2.27-2.8,3.85-3.79l6.67-4.15c1.5-.93,3.13-1.46,4.79-1.73,39.93-26.13,82.86-62.18,123.66-111.91-1.31-1.87-2.63-3.77-3.94-5.49-23.03-30.71-45.1-42.21-72.92-41.26-27.83.96-75.8,24.71-113.23,50.25-37.42,25.55-91.16,47.57-100.75,100.37-6.14,33.82,2.66,56.56,12.83,73.61,22.05-4.19,75.7-17.6,139.03-55.91Z"/>
  <path class="cls-3" d="M567.13,245.35c-.55-.8-1.1-1.51-1.65-2.29.54.76,1.07,1.57,1.6,2.35.02-.01.03-.03.06-.06Z"/>
  <path class="cls-15" d="M565.41,242.97h0s.05.06.06.09c-.01-.02-.04-.06-.06-.09Z"/>
  <path class="cls-14" d="M441.75,354.88c1.64-.26,3.33-.18,5,.16,7.58-5.05,15.26-10.48,23.02-16.27,1.06-2.3,2.67-4.33,4.9-5.72l6.67-4.15c.9-.56,1.86-.98,2.84-1.29,27.56-22.11,55.69-49.05,82.88-82.19-.53-.77-1.06-1.58-1.6-2.35-.01-.04-.04-.06-.06-.09-40.81,49.73-83.73,85.78-123.66,111.91Z"/>
  <path class="cls-16" d="M380.16,392.45l4.39-2.73c1.59-.99,3.33-1.56,5.1-1.8,11.14-5.46,22.79-11.69,34.84-18.84.39-1.63,1.03-3.17,1.95-4.53-63.33,38.31-116.98,51.71-139.03,55.91.48.82.98,1.64,1.46,2.43,16.11-3.05,49.51-11.13,91.3-30.44Z"/>
  <path class="cls-7" d="M567.07,245.41c-.53-.77-1.06-1.58-1.6-2.35-.01-.04-.04-.06-.06-.09-40.81,49.73-89.74,87.67-123.66,111.91-3.68,2.63-11.3,7.58-15.31,9.67-33.22,17.3-116.98,51.71-139.03,55.91-.08.01-.17.03-.24.04,5.26,8.48,10.71,15.55,14.49,21.86,11.52,19.19,36.47,52.77,36.47,52.77l272.52-174.64s-22.35-43.87-43.57-75.1Z"/>
  <path class="cls-6" d="M917.83,237.26c-.12.17-.26.35-.38.52,111.9,136.04,239.71,169.69,277.37,176.89-.42.74-.85,1.38-1.26,2.11.09.01.2.04.31.06,9.28-16.67,16.62-38.59,10.87-70.2-9.59-52.81-63.33-74.83-100.75-100.37-37.42-25.55-85.4-49.3-113.23-50.25-27.82-.96-49.89,10.55-72.92,41.26Z"/>
  <path class="cls-24" d="M917.44,237.78c-.43.58-.85,1.18-1.28,1.76,111.7,136.04,239.34,169.91,277.39,177.23.42-.72.84-1.36,1.26-2.11-37.66-7.2-165.47-40.85-277.37-176.89Z"/>
  <path class="cls-17" d="M917.44,237.78c-.11-.14-.21-.26-.33-.4-22.68,31.05-49.2,83.12-49.2,83.12l272.51,174.64s24.95-33.58,36.47-52.77c4.32-7.2,10.75-15.45,16.65-25.59.42-.72.84-1.36,1.26-2.11-37.66-7.2-165.47-40.85-277.37-176.89Z"/>
  <path class="cls-10" d="M677.01,98.68c-1.44,9.84-5.93,18.69-12.49,25.55,6.58-6.85,11.05-15.7,12.49-25.55Z"/>
  <path class="cls-29" d="M677.01,98.68c-1.44,9.84-5.93,18.69-12.49,25.55,6.58-6.85,11.05-15.7,12.49-25.55Z"/>
  <path class="cls-10" d="M739.3,132.72c-17.81-1.62-32.31-14.62-36.2-31.68-2.62-.18-5.16-.4-7.73-.62,3.93,18.55,20.39,32.48,40.12,32.48,1.27,0,2.53-.08,3.78-.19,1.25.11,2.5.19,3.78.19,19.17,0,35.23-13.18,39.73-30.97-2.53.11-5.15.3-7.65.38-4.31,16.4-18.5,28.8-35.84,30.4Z"/>
  <path class="cls-12" d="M921.65,82.94c-9.21,2.14-18.29,4.03-27.26,5.78.07,1.05.16,2.09.16,3.16,0,25.84-20.94,46.78-46.78,46.78-1.53,0-3.04-.09-4.52-.24-.49-.04-.98-.13-1.47-.19-.98-.12-1.96-.26-2.92-.45-.57-.11-1.13-.25-1.7-.38-.86-.2-1.71-.4-2.55-.65-.58-.18-1.17-.37-1.75-.56-.79-.27-1.57-.55-2.33-.85-.58-.24-1.17-.47-1.74-.73-.74-.33-1.46-.69-2.18-1.04-.56-.29-1.12-.58-1.68-.88-.7-.39-1.37-.82-2.05-1.25-.54-.34-1.08-.65-1.6-1.01-.69-.47-1.33-.98-1.99-1.48-.7-.54-1.38-1.09-2.06-1.66-.79-.69-1.56-1.37-2.3-2.1-.53-.52-1.01-1.07-1.51-1.61-.45-.48-.91-.97-1.34-1.47-.49-.59-.96-1.19-1.42-1.8-.39-.51-.78-1.01-1.15-1.53-.45-.64-.87-1.29-1.29-1.96-.33-.53-.65-1.04-.96-1.58-.39-.69-.77-1.38-1.14-2.09-.28-.55-.55-1.1-.81-1.66-.34-.73-.66-1.46-.96-2.22-.23-.56-.42-1.14-.63-1.72-.27-.76-.55-1.54-.79-2.33-.17-.57-.29-1.16-.44-1.73-.21-.82-.44-1.64-.61-2.49-6.5.45-12.8.7-19.11.96-2.53.11-5.15.3-7.65.38-4.31,16.4-18.5,28.8-35.84,30.4-17.81-1.62-32.31-14.62-36.2-31.68-2.62-.18-5.16-.4-7.73-.62-6.23-.53-12.37-1.09-18.36-1.74-1.44,9.85-5.91,18.7-12.49,25.55-.03.04-.07.08-.1.12-.77.79-1.56,1.53-2.39,2.27-.26.23-.52.47-.79.71-.71.62-1.46,1.19-2.2,1.77-.42.32-.81.63-1.24.92-.69.5-1.39.96-2.11,1.41-.52.34-1.05.65-1.57.97-.68.38-1.36.75-2.06,1.11-.62.31-1.25.62-1.88.91-.66.3-1.33.6-2,.87-.71.29-1.44.54-2.17.8-.63.21-1.27.44-1.92.64-.81.24-1.64.44-2.47.63-.61.15-1.2.31-1.81.43-.95.18-1.93.31-2.91.44-.51.07-1.01.17-1.53.21-1.5.15-3.04.24-4.57.24-25.84,0-46.78-20.95-46.78-46.78,0-1.72.1-3.41.28-5.06.01-.07.02-.12.02-.18.19-1.62.45-3.21.8-4.77-10.25-2.69-19.63-5.44-28.15-8.15-.05,5.07-.07,9.98-.07,14.56,0,29.96,18.75,77.22,23.74,89.24h317.29c4.98-12.02,23.74-59.28,23.74-89.24,0-1.72,0-3.53-.01-5.34Z"/>
  <path class="cls-10" d="M585.12,81.88c.8-3.67,2.05-7.15,3.64-10.44-1.59,3.28-2.85,6.77-3.64,10.44Z"/>
  <path class="cls-5" d="M585.12,81.88c.8-3.67,2.05-7.15,3.64-10.44-1.59,3.28-2.85,6.77-3.64,10.44Z"/>
  <path class="cls-10" d="M743.06,50.86c-1.28,0-2.53.08-3.78.19-1.25-.11-2.51-.19-3.78-.19-22.66,0-41.02,18.36-41.02,41.02,0,2.92.31,5.78.9,8.54,2.57.21,5.11.44,7.73.62-.68-2.95-1.07-6.01-1.07-9.15,0-21.38,16.34-38.91,37.21-40.83,20.9,1.9,37.28,19.44,37.28,40.83,0,3.61-.5,7.11-1.38,10.44,2.5-.08,5.12-.27,7.65-.38.81-3.23,1.3-6.58,1.3-10.05,0-22.66-18.38-41.02-41.02-41.02Z"/>
  <path class="cls-2" d="M894.79,0h-311.02c-23.31,0-26.39,40.45-26.8,73.72,8.51,2.71,17.9,5.46,28.15,8.15.8-3.67,2.05-7.15,3.64-10.44.17-.34.31-.67.48-1,.43-.83.9-1.64,1.38-2.45.24-.39.47-.79.72-1.18.47-.75.98-1.48,1.49-2.2.29-.42.61-.82.91-1.22.53-.68,1.06-1.35,1.62-2,.36-.42.73-.81,1.1-1.22.56-.61,1.11-1.21,1.71-1.79.43-.42.88-.8,1.31-1.19.58-.53,1.16-1.08,1.77-1.57,1.02-.83,2.08-1.62,3.16-2.36.51-.35,1.04-.65,1.56-.98.69-.43,1.36-.86,2.07-1.25.54-.3,1.1-.59,1.67-.87.72-.36,1.44-.72,2.18-1.05.56-.25,1.14-.48,1.72-.71.77-.3,1.54-.6,2.34-.85.57-.19,1.15-.38,1.73-.55.83-.25,1.69-.45,2.55-.65.55-.14,1.11-.27,1.68-.37.96-.19,1.93-.33,2.91-.45.5-.06.97-.15,1.46-.19,1.48-.15,2.98-.22,4.5-.22,25.83,0,46.77,20.94,46.77,46.78,0,1.26-.09,2.49-.19,3.72-.09,1.02-.21,2.05-.36,3.07,5.99.65,12.13,1.21,18.36,1.74,2.57.21,5.11.44,7.73.62-.68-2.95-1.07-6.01-1.07-9.15,0-21.38,16.34-38.91,37.21-40.83,20.9,1.9,37.28,19.44,37.28,40.83,0,3.61-.5,7.11-1.38,10.44,2.5-.08,5.12-.27,7.65-.38,6.31-.26,12.61-.51,19.11-.96-.01-.02-.01-.06-.01-.08-.29-1.44-.51-2.9-.65-4.39-.16-1.53-.24-3.07-.24-4.63,0-25.83,20.95-46.78,46.78-46.78,1.57,0,3.14.08,4.68.24.56.06,1.1.17,1.64.24.98.13,1.96.26,2.91.45.65.12,1.29.32,1.95.47.82.2,1.63.38,2.43.63.72.21,1.41.48,2.11.74.7.25,1.39.47,2.08.75.75.32,1.47.68,2.2,1.02.6.28,1.19.55,1.78.85.77.41,1.53.87,2.27,1.32.5.29.99.59,1.47.89.8.53,1.56,1.08,2.31,1.65.39.29.8.57,1.18.88.8.64,1.57,1.31,2.33,2,.3.27.61.53.9.81.79.76,1.55,1.55,2.29,2.37.21.24.44.47.64.71.78.89,1.51,1.8,2.22,2.74.15.19.29.39.44.58.73,1,1.42,2.05,2.06,3.1.1.16.19.3.28.46.66,1.11,1.29,2.27,1.85,3.44.06.11.11.22.16.33.58,1.24,1.12,2.49,1.6,3.78.03.06.06.12.08.19.48,1.32.91,2.68,1.28,4.05.01.03.01.08.02.11.37,1.39.67,2.82.92,4.27,0,.02,0,.05.01.08.24,1.45.4,2.93.5,4.42,0,.01.01.02.01.03,8.97-1.76,18.05-3.64,27.26-5.78-.06-34.47-1.34-82.94-26.87-82.94Z"/>
  <path class="cls-9" d="M450.96,505.46l6.65-4.16c6.75-4.19,8.33-13.84,3.54-21.53l-23.03-36.96h0l-.72-1.16-31.34,18.96,1.21,1.96,22.78,36.57c4.79,7.7,14.13,10.54,20.89,6.33Z"/>
  <path class="cls-1" d="M380.16,392.45l-2.28,1.42c-6.76,4.21-8.33,13.85-3.54,21.56l22.76,36.55,31.35-18.96-23.02-36.96c-3.66-5.88-9.99-8.91-15.78-8.13-1.77.24-3.52.81-5.1,1.8l-4.39,2.73Z"/>
  <path class="cls-9" d="M500.52,472.58l6.66-4.16c6.76-4.19,8.33-13.84,3.54-21.53l-23.23-37.31h-.01l-.5-.81-30.34,20.57h0l22.99,36.92c4.79,7.7,14.15,10.54,20.89,6.33Z"/>
  <path class="cls-1" d="M426.76,382.32l22.76,36.54,31.34-18.96-23.01-36.96c-2.69-4.32-6.81-7.05-11.1-7.9-1.67-.34-3.36-.42-5-.16-1.66.27-3.29.8-4.79,1.73l-6.67,4.15c-1.58.99-2.85,2.29-3.85,3.79-.91,1.36-1.55,2.9-1.95,4.53-1.03,4.18-.37,9,2.27,13.24Z"/>
  <path class="cls-9" d="M523.27,438.31c4.79,7.7,14.14,10.54,20.89,6.33l6.66-4.16c6.75-4.19,8.33-13.84,3.54-21.53l-23.56-37.83-.19-.29-30.66,20.06h.01l23.31,37.42Z"/>
  <path class="cls-1" d="M471.13,354.6l22.76,36.55,31.35-18.96-23.02-36.96c-4.15-6.67-11.71-9.67-18.04-7.62-.99.31-1.95.73-2.84,1.29l-6.67,4.15c-2.24,1.39-3.85,3.42-4.9,5.72-2.14,4.69-1.84,10.68,1.36,15.83Z"/>
  <path class="cls-9" d="M1013.85,496l6.66,4.16c6.76,4.2,16.1,1.37,20.89-6.33l23.46-37.66h0s.54-.87.54-.87l-31.34-18.96-.03.06-23.71,38.06c-4.79,7.69-3.21,17.34,3.54,21.54Z"/>
  <path class="cls-1" d="M1070.77,446.66l22.76-36.54c4.79-7.7,3.21-17.35-3.54-21.56l-6.67-4.15c-6.75-4.22-16.09-1.37-20.88,6.33l-23.02,36.96,31.35,18.96Z"/>
  <path class="cls-9" d="M981.63,403.23l-23.74,38.12c-4.79,7.69-3.22,17.34,3.54,21.54l6.66,4.16c6.75,4.2,16.1,1.37,20.89-6.33l23.66-38.02.33-.51-19.77-11.95-.12-.08-11.45-6.93Z"/>
  <path class="cls-1" d="M1018.35,413.56l22.76-36.54c4.79-7.7,3.22-17.35-3.53-21.56l-6.67-4.15c-6.75-4.22-16.1-1.37-20.89,6.33l-23.01,36.96,31.34,18.96Z"/>
  <path class="cls-9" d="M917.05,435.17l6.66,4.16c6.76,4.2,16.1,1.37,20.89-6.33l24-38.52-31.34-18.96-23.75,38.12c-4.79,7.69-3.22,17.34,3.54,21.53Z"/>
  <path class="cls-1" d="M973.97,385.84l22.76-36.55c4.79-7.7,3.22-17.35-3.54-21.56l-6.67-4.15c-6.75-4.22-16.09-1.37-20.88,6.33l-23.02,36.96,31.35,18.96Z"/>
  <polygon class="cls-10" points="128.58 776.1 105.84 783.1 97.77 818.36 124.27 843 128.58 841.67 128.58 776.1"/>
  <polygon class="cls-10" points="140.42 772.46 134.34 774.32 134.34 839.89 158.86 832.36 166.94 797.1 140.42 772.46"/>
  <polygon class="cls-10" points="1301.08 790.09 1293.86 796.61 1301.45 831.99 1335.89 843.1 1350.8 829.62 1301.08 790.09"/>
  <polygon class="cls-10" points="1320.7 772.36 1306.85 784.88 1356.57 824.4 1362.73 818.83 1355.13 783.46 1320.7 772.36"/>
  <polygon class="cls-10" points="382.2 1057.62 385.76 1042.06 374.06 1031.18 358.79 1035.88 355.23 1051.46 366.93 1062.33 382.2 1057.62"/>
  <path class="cls-22" d="M384.64,1059.88l4.3-18.8-14.14-13.13-18.44,5.68-4.3,18.81,14.13,13.14,18.45-5.69ZM358.79,1035.88l15.27-4.7,11.71,10.87-3.57,15.56-15.27,4.71-11.69-10.87,3.55-15.57Z"/>
  <polygon class="cls-10" points="1124.85 1057.62 1128.41 1042.06 1116.72 1031.18 1101.45 1035.88 1097.88 1051.46 1109.59 1062.33 1124.85 1057.62"/>
  <path class="cls-22" d="M1127.29,1059.88l4.3-18.8-14.13-13.13-18.45,5.68-4.31,18.81,14.15,13.14,18.44-5.69ZM1101.45,1035.88l15.27-4.7,11.7,10.87-3.57,15.56-15.26,4.71-11.71-10.87,3.57-15.57Z"/>
  <path class="cls-10" d="M222.31,807.58v47.9h119.97v-20.46h-98.96v-27.02c0-18.39,9.14-27.73,27.17-27.73h71.79v-20.31h-72.21c-30.35,0-47.76,17.35-47.76,47.61Z"/>
  <path class="cls-22" d="M219.43,807.58v50.78h125.73v-26.21h-98.96v-24.14c0-16.72,7.95-24.85,24.29-24.85h74.67v-26.07h-75.09c-31.7,0-50.64,18.88-50.64,50.49ZM342.28,780.27h-71.79c-18.02,0-27.17,9.33-27.17,27.73v27.02h98.96v20.46h-119.97v-47.9c0-30.26,17.41-47.61,47.76-47.61h72.21v20.31Z"/>
  <polygon class="cls-10" points="381.46 759.97 360.44 759.97 360.44 855.48 381.46 855.48 381.46 817.53 460.67 817.53 460.67 855.48 481.68 855.48 481.68 759.97 460.67 759.97 460.67 798.2 381.46 798.2 381.46 759.97"/>
  <path class="cls-22" d="M457.79,795.32h-73.45v-38.24h-26.78v101.27h26.78v-37.95h73.45v37.95h26.78v-101.27h-26.78v38.24ZM460.67,759.97h21.02v95.51h-21.02v-37.95h-79.21v37.95h-21.02v-95.51h21.02v38.23h79.21v-38.23Z"/>
  <rect class="cls-10" x="502.93" y="759.97" width="21.01" height="95.51"/>
  <path class="cls-22" d="M500.05,858.36h26.78v-101.27h-26.78v101.27ZM502.93,759.97h21.01v95.51h-21.01v-95.51Z"/>
  <path class="cls-10" d="M619.27,835.03h-52.74v-75.06h-21.03v95.51h74.2c25.65,0,42.15-12.48,46.62-35.22h-22.01c-3.77,9.81-12.19,14.76-25.04,14.76Z"/>
  <path class="cls-22" d="M641.95,818.36c-3.18,9.28-10.6,13.79-22.68,13.79h-49.86v-75.06h-26.79v101.27h77.07c27.84,0,45.52-13.96,49.77-39.3l.28-1.67h-27.47l-.33.98ZM666.32,820.26c-4.47,22.74-20.97,35.22-46.62,35.22h-74.2v-95.51h21.03v75.06h52.74c12.85,0,21.28-4.96,25.04-14.76h22.01Z"/>
  <path class="cls-10" d="M723.51,855.48h74.18v-20.46h-73.76c-14.3,0-22.51-5.01-25.83-15.78l-.58-1.87h97.64v-19.18h-98.39v-17.92h100.93v-20.31h-121.94v48.04c0,29.29,18.31,47.48,47.76,47.48Z"/>
  <path class="cls-22" d="M672.88,808c0,31.06,19.41,50.36,50.64,50.36h77.06v-26.21h-76.63c-12.33,0-19.15-3.58-22.44-11.88h96.54v-24.94h-98.39v-12.17h100.92v-26.07h-127.7v50.92ZM675.76,759.97h121.94v20.31h-100.93v17.92h98.39v19.18h-97.64l.58,1.87c3.32,10.76,11.53,15.78,25.83,15.78h73.76v20.46h-74.18c-29.45,0-47.76-18.19-47.76-47.48v-48.04Z"/>
  <path class="cls-10" d="M813.89,807.58v47.9h119.96v-20.46h-98.94v-27.02c0-18.39,9.14-27.73,27.16-27.73h71.79v-20.31h-72.2c-30.35,0-47.76,17.35-47.76,47.61Z"/>
  <path class="cls-22" d="M811.01,807.58v50.78h125.72v-26.21h-98.94v-24.14c0-16.72,7.94-24.85,24.28-24.85h74.67v-26.07h-75.08c-31.71,0-50.64,18.88-50.64,50.49ZM933.85,780.27h-71.79c-18.02,0-27.16,9.33-27.16,27.73v27.02h98.94v20.46h-119.96v-47.9c0-30.26,17.41-47.61,47.76-47.61h72.2v20.31Z"/>
  <path class="cls-10" d="M951.17,807.58v47.9h21.02v-38.1h83v38.1h21.16v-95.51h-77.56c-30.26,0-47.62,17.35-47.62,47.61ZM1055.19,780.27v18.34h-81.79l.37-1.75c2.31-10.76,8.85-16.6,36.68-16.6h44.73Z"/>
  <path class="cls-22" d="M948.29,807.58v50.78h26.78v-38.1h77.24v38.1h26.92v-101.27h-80.44c-31.62,0-50.5,18.88-50.5,50.49ZM1076.35,855.48h-21.16v-38.1h-83v38.1h-21.02v-47.9c0-30.26,17.36-47.61,47.62-47.61h77.56v95.51Z"/>
  <path class="cls-22" d="M973.77,796.87l-.37,1.75h81.79v-18.34h-44.73c-27.83,0-34.37,5.84-36.68,16.6ZM1010.45,783.15h41.85v12.58h-75.3c1.98-7.24,7-12.58,33.44-12.58Z"/>
  <path class="cls-10" d="M1208.33,826.81l-7.24-7.69c-27.3-29.65-56.52-50.1-84.5-59.15h-19v95.51h20.45v-64.62c0-1.01-.15-3.55-.41-6.78l-.18-2.21,2.09.74c1.03.36,2.04.75,3.01,1.13,1.22.47,2.37.92,3.39,1.24,25.25,9.56,51.02,32.61,78.87,70.49h23.13v-95.51h-20.45v56.33c0,1.32.13,3.33.43,6.33l.39,4.18Z"/>
  <path class="cls-22" d="M1204.63,816.29c0,.66.03,1.49.1,2.49l-1.54-1.62c-27.7-30.09-57.42-50.83-85.94-60l-22.55-.07v101.27h26.21v-67.5c0-.84-.09-2.52-.25-4.76.28.11.56.21.84.33,1.3.5,2.52.98,3.51,1.28,24.75,9.38,50.24,32.3,77.92,70.07l.43.58h27.47v-101.27h-26.21v59.21ZM1207.51,759.97h20.45v95.51h-23.13c-27.86-37.88-53.63-60.94-78.87-70.49-1.02-.32-2.17-.76-3.39-1.24-.97-.38-1.98-.78-3.01-1.13l-2.09-.74.18,2.21c.26,3.23.41,5.77.41,6.78v64.62h-20.45v-95.51h19c27.98,9.05,57.19,29.5,84.5,59.15l7.24,7.69-.39-4.18c-.29-3-.43-5.02-.43-6.33v-56.33Z"/>
  <path class="cls-10" d="M523.61,1028.09c-1.3,8.97-6.56,13.72-15.19,13.72h-44.99v15.44h24.01l31.5,31.62h20.04l-30.73-31.67,2.94-.3c19.39-2.03,28.81-12.69,28.81-32.63v-14.2h-105.61v78.8h16.95v-62.43h72.52l-.24,1.65Z"/>
  <path class="cls-22" d="M454.2,1029.32h66.26c-1.43,6.47-5.38,9.62-12.04,9.62h-47.87v21.2h25.68l31.51,31.62h28.03l-31.41-32.37c18.92-2.94,28.51-14.74,28.51-35.12v-17.08h-111.37v84.56h22.7v-62.43ZM451.32,1088.87h-16.95v-78.8h105.61v14.2c0,19.94-9.42,30.61-28.81,32.63l-2.94.3,30.73,31.67h-20.04l-31.5-31.62h-24.01v-15.44h44.99c8.64,0,13.89-4.74,15.19-13.72l.24-1.65h-72.52v62.43Z"/>
  <path class="cls-10" d="M595.8,1088.87h61.33v-16.49h-60.98c-12,0-18.88-4.22-21.68-13.27l-.57-1.87h81.13v-15.44h-81.67v-15.37h83.78v-16.37h-100.72v39.64c0,24.16,15.09,39.17,39.39,39.17Z"/>
  <path class="cls-22" d="M595.8,1091.75h64.21v-22.24h-63.86c-9.94,0-15.52-2.84-18.25-9.38h80.01v-21.2h-81.67v-9.62h83.78v-22.13h-106.48v42.52c0,25.93,16.19,42.05,42.27,42.05ZM556.41,1010.07h100.72v16.37h-83.78v15.37h81.67v15.44h-81.13l.57,1.87c2.8,9.05,9.68,13.27,21.68,13.27h60.98v16.49h-61.33c-24.3,0-39.39-15.01-39.39-39.17v-39.64Z"/>
  <path class="cls-10" d="M761.13,1028.09c-1.3,8.97-6.56,13.72-15.19,13.72h-44.99v15.44h40.79c24.08,0,35.78-10.78,35.78-32.98v-14.2h-105.62v78.8h16.96v-62.43h72.52l-.24,1.65Z"/>
  <path class="cls-22" d="M691.72,1029.32h66.26c-1.43,6.47-5.38,9.62-12.04,9.62h-47.87v21.2h43.66c25.65,0,38.66-12.07,38.66-35.86v-17.08h-111.38v84.56h22.71v-62.43ZM688.84,1088.87h-16.96v-78.8h105.62v14.2c0,22.2-11.71,32.98-35.78,32.98h-40.79v-15.44h44.99c8.64,0,13.89-4.74,15.19-13.72l.24-1.65h-72.52v62.43Z"/>
  <path class="cls-10" d="M873.25,1088.87h17.07v-78.8h-64.13c-24.95,0-39.28,14.33-39.28,39.29v39.52h16.96v-31.62h69.38v31.62ZM804.82,1042.16l.37-1.74c1.96-9.06,7.42-13.97,30.68-13.97h37.38v15.72h-68.44Z"/>
  <path class="cls-22" d="M806.75,1060.13h63.62v31.62h22.83v-84.56h-67.01c-26.39,0-42.16,15.77-42.16,42.17v42.4h22.72v-31.62ZM803.87,1088.87h-16.96v-39.52c0-24.96,14.33-39.29,39.28-39.29h64.13v78.8h-17.07v-31.62h-69.38v31.62Z"/>
  <path class="cls-22" d="M873.25,1026.44h-37.38c-23.26,0-28.73,4.91-30.68,13.97l-.37,1.74h68.44v-15.72ZM870.37,1039.28h-61.94c1.69-5.76,6.06-9.96,27.44-9.96h34.5v9.96Z"/>
  <rect class="cls-10" x="908.48" y="1010.07" width="16.95" height="78.8"/>
  <path class="cls-22" d="M928.31,1007.19h-22.71v84.56h22.71v-84.56ZM925.43,1088.87h-16.95v-78.8h16.95v78.8Z"/>
  <path class="cls-10" d="M1033.05,1028.09c-1.29,8.97-6.54,13.72-15.18,13.72h-44.99v15.44h24l31.51,31.62h20.03l-30.72-31.67,2.95-.3c19.39-2.03,28.81-12.69,28.81-32.63v-14.2h-105.62v78.8h16.96v-62.43h72.52l-.25,1.65Z"/>
  <path class="cls-22" d="M963.66,1029.32h66.26c-1.43,6.47-5.39,9.62-12.04,9.62h-47.87v21.2h25.68l31.51,31.62h28.02l-31.4-32.37c18.91-2.94,28.51-14.74,28.51-35.12v-17.08h-111.38v84.56h22.72v-62.43ZM960.78,1088.87h-16.96v-78.8h105.62v14.2c0,19.94-9.42,30.61-28.81,32.63l-2.95.3,30.72,31.67h-20.03l-31.51-31.62h-24v-15.44h44.99c8.64,0,13.89-4.74,15.18-13.72l.25-1.65h-72.52v62.43Z"/>
  <polygon class="cls-4" points="1104.96 681.62 1122.18 649.34 1109.25 596.62 1156.82 502.58 1204.62 505.57 1173.77 583.75 1191.56 632.34 1245.87 637.92 1303.47 560.79 1330.95 612.9 1290.87 681.62 1104.96 681.62"/>
</svg>